<svg width="433" height="151" viewBox="0 0 433 151" fill="none" xmlns="http://www.w3.org/2000/svg">
<path d="M50.6 151C40.8667 151 32.1333 148.933 24.4 144.8C16.8 140.533 10.8 134.6 6.4 127C2.13333 119.267 5.66244e-07 110.333 5.66244e-07 100.2C5.66244e-07 90.2 2.13333 81.3333 6.4 73.6C10.8 65.8667 16.8 59.8667 24.4 55.6C32.1333 51.2 40.8667 49 50.6 49C66.3333 49 78.7333 53.1333 87.8 61.4V0.199996H113V148H88.6V136.8C83.1333 141.867 77.4667 145.533 71.6 147.8C65.7333 149.933 58.7333 151 50.6 151ZM56.8 131.2C64 131.2 70.4 129.267 76 125.4C81.6 121.533 85.5333 116.333 87.8 109.8V90.4C85.6667 83.8667 81.7333 78.6667 76 74.8C70.4 70.8 64 68.8 56.8 68.8C47.7333 68.8 40.2667 71.7333 34.4 77.6C28.5333 83.4667 25.6 91 25.6 100.2C25.6 109.4 28.5333 116.867 34.4 122.6C40.2667 128.333 47.7333 131.2 56.8 131.2ZM191.008 151C173.141 151 159.008 146.533 148.608 137.6C138.208 128.667 133.008 116.2 133.008 100.2C133.008 84.4667 137.608 72 146.808 62.8C156.008 53.6 169.141 49 186.208 49C197.408 49 206.941 51.1333 214.808 55.4C222.808 59.6667 228.808 65.5333 232.808 73C236.808 80.3333 238.808 88.7333 238.808 98.2V109.8H157.008C158.741 124.067 171.141 131.2 194.208 131.2C200.341 131.2 206.608 130.667 213.008 129.6C219.408 128.533 225.008 127.067 229.808 125.2V144.6C225.274 146.467 219.408 148 212.208 149.2C205.141 150.4 198.074 151 191.008 151ZM215.008 92.6C214.741 85 212.008 79.1333 206.808 75C201.741 70.8667 194.741 68.8 185.808 68.8C177.008 68.8 170.074 70.9333 165.008 75.2C159.941 79.4667 157.274 85.2667 157.008 92.6H215.008ZM246.875 52H272.275L298.275 118.4L324.275 52H349.675L310.075 148H286.475L246.875 52Z" fill="white"/>
<path d="M388.625 98.2H365.625V78H388.625V55H408.825V78H432.025V98.2H408.825V121.4H388.625V98.2Z" fill="#5160E4"/>
</svg>
